<?xml version="1.0" encoding="iso-8859-1"?>
<!-- Generator: Adobe Illustrator 19.0.0, SVG Export Plug-In . SVG Version: 6.00 Build 0)  -->
<svg xmlns="http://www.w3.org/2000/svg" xmlns:xlink="http://www.w3.org/1999/xlink" version="1.1" id="Layer_1" x="0px" y="0px" viewBox="0 0 512 512" style="enable-background:new 0 0 512 512;" xml:space="preserve" width="512px" height="512px">
<g>
	<g>
		<circle cx="447.159" cy="89.83" r="39.32" fill="#fff"/>
	</g>
</g>
<g>
	<g>
		<path d="M476.409,487.571l-7.451-114.366c-0.144-2.19-0.599-4.347-1.354-6.406l-14.24-38.826    c-9.176-0.042-18.33-3.614-25.245-10.702c-5.228-5.36-45.015-46.143-50.344-51.604c-4.783-4.903-11.459-10.279-9.881-20.973    l9.683-62.89l6.603,61.13c0.459,4.254,2.333,8.231,5.321,11.293l50.344,51.605c7.37,7.554,19.469,7.705,27.024,0.334    c7.556-7.37,7.705-19.469,0.334-27.025l-45.732-46.878l-5.895-54.568l15.979,41.445l20.188,20.694l5.949-72.372    c1.302-15.841-10.484-29.737-26.325-31.04l-51.15-4.204c-15.841-1.302-29.737,10.484-31.04,26.325l-8.356,139.372l10.228,77.893    l-29.386,107.187c-3.348,12.215,3.84,24.831,16.053,28.181c12.222,3.348,24.834-3.843,28.182-16.053l30.678-111.898    c0.85-3.106,1.039-6.357,0.551-9.54l-9.793-63.851l10.849,0.892l25.22,68.76l7.235,111.065    c0.823,12.615,11.705,22.213,24.376,21.394C467.654,511.123,477.231,500.21,476.409,487.571z" fill="#fff"/>
	</g>
</g>
<g>
	<g>
		<circle cx="144.089" cy="42.141" r="42.141" fill="#fff"/>
	</g>
</g>
<g>
	<g>
		<path d="M345.716,32.505c-5.322-9.889-17.653-13.59-27.541-8.27l-141.553,76.179c-3.182,8.313-22.308,58.279-24.172,63.149    l5.943-27.994c0.417-1.966,0.114-4.017-0.854-5.778l-8.162-14.843l7.255-13.196c1.08-1.965-0.343-4.377-2.589-4.377h-19.913    c-2.242,0-3.67,2.41-2.588,4.377l7.255,13.196l-8.192,14.898c-0.95,1.728-1.26,3.735-0.876,5.668l5.196,28.048    c-12.011-30.804-8.118-22.697-24.945-65.85H88.155c-6.989,0-13.49,3.591-17.211,9.507l-42.301,67.248    c-4.65,7.391-4.06,16.928,1.466,23.691l43.884,53.712c4.018,4.916,9.857,7.465,15.746,7.468c0,0,0.009,226.288,0.009,228.26    c0,13.476,10.924,24.4,24.4,24.4s24.4-10.923,24.4-24.4V292.57h10.534v195.029c0,13.476,10.924,24.4,24.4,24.4    s24.4-10.923,24.4-24.4c0-320.623-0.444-141.342-0.444-352.208l140.01-75.346C347.336,54.724,351.039,42.393,345.716,32.505z     M70.847,183.75l18.89-30.031v53.15L70.847,183.75z" fill="#fff"/>
	</g>
</g>
<g>
</g>
<g>
</g>
<g>
</g>
<g>
</g>
<g>
</g>
<g>
</g>
<g>
</g>
<g>
</g>
<g>
</g>
<g>
</g>
<g>
</g>
<g>
</g>
<g>
</g>
<g>
</g>
<g>
</g>
</svg>
