<?xml version="1.0" encoding="utf-8"?>
<!-- Generator: Adobe Illustrator 19.1.0, SVG Export Plug-In . SVG Version: 6.00 Build 0)  -->
<svg version="1.1" id="Layer_1" xmlns="http://www.w3.org/2000/svg" xmlns:xlink="http://www.w3.org/1999/xlink" x="0px" y="0px"
	 viewBox="0 0 256 75" enable-background="new 0 0 256 75" xml:space="preserve">
<g id="PEPPERDINE__x28_fat_x29_">
	<g>
		<path fill="#FFFFFF" d="M236.7,49.1L236.7,49.1c-0.2-0.1-0.6-0.1-1-0.1l-3.9,0c-0.2,0-0.3,0.1-0.4,0.2c-0.1,0.1-0.1,0.3-0.1,0.5
			c0.1,0.4,0.5,0.4,0.8,0.3l0,0l0.1,0l0,0c0,0,0,0,0.1,0c0,0,0.1,0,0.4,0.1l0.1,0c0.1,0.1,0.2,0.3,0.2,0.6c0.2,0.8,0.3,3.6,0.3,5
			l0,0.2c0.1,1.1,0.2,5.8,0.2,8v0.3l-0.2-0.3c-9.1-12.7-10.5-14.5-10.8-14.7l0,0l-0.1,0c-0.2,0-0.9,0-1.9,0c0,0-1.3-0.1-1.3-0.1
			l-0.2,0l-0.1,0c-0.2,0.1-0.3,0.3-0.3,0.5c0,0.2,0.2,0.4,0.4,0.4c0,0,0.1,0,0.1,0h0c1,0.1,1.2,0.2,1.3,0.2l0,0
			c0.1,0.2,0.2,0.6,0.2,1.4l0,0.1c0.1,2,0.2,3.3,0.2,4l0,0.2l0,0.4c0,0.1,0,0.2,0,0.4c0,0.2,0,0.4,0,0.5h0c0,1,0.1,3.1,0.1,5
			c0,1.8,0,2.9-0.1,3.4c0,0.4-0.1,0.7-0.2,0.9l-0.4,0.3l-0.6,0c-0.2,0-0.5-0.1-0.7,0.2c-0.2,0.3-0.1,0.5-0.1,0.6
			c0.2,0.3,0.5,0.3,0.6,0.3c0,0,2,0,2.1,0l2.1,0c0.2,0,0.3,0,0.4,0l0.3,0l0.2,0c0.1-0.1,0.3-0.2,0.3-0.4l0-0.3l-0.3-0.2l-0.4,0
			c0,0-0.1,0-0.1,0l-0.1,0l-0.4,0l-0.5-0.2l0,0c-0.1-0.2-0.2-0.5-0.2-0.9c-0.3-2-0.5-10.5-0.5-12.8l0-0.3l0.4,0.6
			c6.7,9.3,10.7,14.9,10.9,15.2c0.1,0.2,0.3,0.3,0.5,0.3c0,0,0.1,0,0.1,0l0.1,0c0.1,0,0.6-0.4,0.6-0.4v0c0.3-0.1,0.5-0.3,0.5-0.5
			l-0.2-3.8c-0.1-0.8-0.3-6.8-0.3-9.8c0-0.9,0-1.5,0-1.7c0-0.4,0.1-0.6,0.1-0.8l0,0c0.1-0.7,0.1-1.1,0.4-1.4l0.1-0.1
			c0.4-0.1,0.7,0,0.8,0l0.2,0l0,0l0.1,0c0.2,0,0.4-0.2,0.5-0.5l0-0.1l0-0.2L236.7,49.1z"/>
		<path fill="#FFFFFF" d="M219.2,69.8l-0.2,0c-0.2,0-0.3,0.1-0.5,0.3c-0.2,0.2-1.1,0.9-1.8,1.2c-2,1.1-3.8,1.4-4.9,1.5
			c-1.1,0.2-4,0.6-8-0.6c-2.4-0.7-4.3-2-6.3-3.9c-0.7-0.5-3.4-4.4-6.2-8.4l-1.1-1.6l0.2,0c0.5-0.1,1.6-0.3,2.3-0.8
			c1.6-0.6,2.6-2.6,2.6-3.8l0-0.1c-0.1-1.1-0.2-3.1-2.7-4c-1.1-0.4-2.2-0.3-2.9-0.3v0l-0.2,0c0,0-1.9,0.1-2,0.1l-2,0
			c0,0-0.1,0-0.2,0l0,0l-0.2,0c0,0-0.9-0.1-0.9-0.1c-0.5-0.1-0.7-0.1-0.9-0.1l-0.1,0l-0.5,0.4l0.2,0.3c0.1,0.2,0.4,0.3,0.5,0.3
			l0.7,0.1c0.4,0,0.5,0.1,0.5,0.1l0.1,0.2c0.1,0.3,0.1,0.8,0.2,1.2l0,0.3l0,0.3c0,0.1,0,0.1,0,0.2l0.1,1.4c0,0,0,0.1,0,0.2
			c0,0.6,0,2.6,0.1,2.9c0,0.1,0,1.6,0.1,2.6c0,0.6,0,3,0,4.1c0,0,0,0.1,0,0.1l0,0.3l0,0.3c0,0.1,0,0.2,0,0.3
			c-0.1,1.1-0.1,1.6-0.2,1.7l-0.1,0.1c-0.1,0-0.1,0.1-0.2,0.1l-0.1,0c-1.2,0-1.3,0.1-1.4,0.2c-0.1,0.1-0.1,0.2-0.1,0.4
			c0,0.1,0,0.1,0,0.2c0.1,0.1,0.2,0.3,0.4,0.3l0.5,0c0,0,0.2,0,0.3,0l3.2,0c0,0,0.2,0,0.3,0c0,0,0.5,0,0.5,0c1.2,0,1.3,0,1.5-0.1
			c0.2-0.2,0.3-0.3,0.2-0.6c-0.1-0.4-0.4-0.4-0.8-0.4l-0.8,0l0,0l-0.3-0.1l-0.2-0.5c-0.2-0.6-0.4-5.7-0.4-7.7l0-0.3l0.2,0.2
			c1.9,2.3,4.2,5.6,5.4,7.4c0,0,0.5,0.8,0.6,0.8c0.3,0.6,2.2,3.2,4.5,4.8c2.2,1.6,4.6,2.5,7.9,3.1c0.7,0.1,1.6,0.2,2.4,0.2
			c1.8,0,3.7-0.3,5.2-0.8c0.1,0,0.1,0,0.1,0v0c1.3-0.4,2.7-0.9,4.8-2.7c0.7-0.6,1-1.1,1-1.3l0-0.1L219.2,69.8z M187.3,51.1l0.1-0.3
			l1.1-0.3c0.4-0.1,1.4-0.2,2.4,0.1c1.5,0.6,1.6,1.4,1.8,2.6l0,0.1l0,0.4c0,0.8,0,1.9-1.4,2.8c-0.9,0.5-2.3,0.7-3.8,0.6l0,0l-0.1,0
			l-0.1,0l0-0.1c0-0.6,0-1.4,0-2.4C187.2,52.9,187.3,51.1,187.3,51.1z"/>
		<path fill="#FFFFFF" d="M137.3,52.5c-0.2-1.2-1.5-2.7-2.9-3.1c-1.3-0.4-3-0.3-3-0.3c0,0-1.7,0.1-1.7,0.1c-0.5,0-0.8,0-1,0.1
			l-0.2,0l-0.3,0l-0.7,0l-0.4,0l-0.3,0l-0.8,0c-0.4-0.1-0.7-0.1-0.8,0c-0.2,0.1-0.3,0.3-0.3,0.4c0,0.2,0,0.4,0.3,0.5
			c0.2,0.1,0.5,0.1,1.3,0.1l0.4,0.1l0,0.1c0.2,0.7,0.3,3.3,0.3,5.4l0.1,7.7c0,0.9,0,1.1,0,1.1l0,0.5c0,0.5-0.1,1.1-0.1,1.5l0,0.1
			l0,0c-0.3,0.1-0.5,0.2-0.6,0.2l-0.2,0c-0.5,0-0.7,0-0.8,0.1c-0.1,0.1-0.2,0.2-0.2,0.4c0,0.2,0.1,0.4,0.3,0.5
			c0.1,0.1,0.2,0.1,0.4,0.1c0.2,0,0.4,0,0.7-0.1l0,0l1.7,0l3,0c0.2,0,0.3-0.1,0.4-0.3c0-0.1,0-0.1,0-0.2c0-0.1,0-0.2-0.1-0.3
			c-0.2-0.3-0.4-0.3-0.6-0.3c0,0-0.7,0-0.7,0l-0.3,0l-0.2-0.1l-0.1-0.8c-0.1-0.5-0.3-5.6-0.3-7.2l0-0.4l0,0l0-0.8
			c0-3.7,0.1-6.1,0.1-6.3c0.1-0.4,0.2-0.6,1.1-0.7h0c1-0.1,2.2-0.1,2.9,0.5c0.5,0.5,1.2,1.4,1.2,3.1c0,0.1,0,0.2,0,0.2
			c-0.1,1.8-0.6,2.5-1.5,3.1c-0.4,0.2-1.1,0.5-2.3,0.6c-0.1,0-0.3,0-0.4,0c-0.4,0-0.6,0-0.7,0.1l-0.3,0.2l0.1,0.2
			c0.1,0.2,0.5,0.3,0.6,0.3c0.5,0,2,0,2.2-0.1c2.1-0.3,3.4-1.4,4-2.3c0.6-1.1,0.9-1.9,0.9-2.8C137.4,53.4,137.4,53,137.3,52.5z"/>
		<path fill="#FFFFFF" d="M160.3,52.5c-0.2-1.2-1.5-2.7-2.9-3.1c-1.3-0.4-3-0.3-3-0.3c0,0-1.7,0.1-1.7,0.1c-0.5,0-0.8,0-1,0.1
			l-0.2,0l-0.4,0l-0.7,0l-0.3,0l-0.3,0l-0.8,0c-0.4-0.1-0.7-0.1-0.8,0c-0.2,0.1-0.3,0.3-0.3,0.4c0,0.2,0,0.4,0.3,0.5
			c0.2,0.1,0.5,0.1,1.3,0.1l0.4,0.1l0,0.1c0.2,0.7,0.3,3.3,0.3,5.4l0.1,7.7c0,0.9,0,1.1,0,1.1l0,0.5c0,0.5-0.1,1.1-0.1,1.5l0,0.1
			l0,0c-0.3,0.1-0.5,0.2-0.6,0.2l-0.2,0c-0.5,0-0.7,0-0.8,0.1c-0.1,0.1-0.2,0.2-0.2,0.4c0,0.2,0.1,0.4,0.3,0.5
			c0.1,0.1,0.2,0.1,0.4,0.1c0.2,0,0.4,0,0.7-0.1l0,0l1.7,0l3,0c0.2,0,0.3-0.1,0.4-0.3c0-0.1,0-0.1,0-0.2c0-0.1,0-0.2-0.1-0.3
			c-0.2-0.3-0.4-0.3-0.6-0.3c0,0-0.7,0-0.7,0l-0.3,0l-0.2-0.1l-0.1-0.8c-0.1-0.5-0.3-5.6-0.3-7.2l0-0.4l0-0.3l0-0.5
			c0-3.7,0.1-6.1,0.1-6.3c0.1-0.4,0.2-0.6,1.1-0.7h0c1-0.1,2.2-0.1,2.9,0.5c0.5,0.5,1.2,1.4,1.2,3.1c0,0.1,0,0.2,0,0.2
			c-0.1,1.8-0.6,2.5-1.5,3.1c-0.4,0.2-1.1,0.5-2.3,0.6c-0.1,0-0.3,0-0.4,0c-0.4,0-0.6,0-0.7,0.1l-0.3,0.2l0.1,0.2
			c0.1,0.2,0.5,0.3,0.6,0.3c0.5,0,2,0,2.2-0.1c2.1-0.3,3.4-1.4,4-2.3c0.6-1.1,0.9-1.9,0.9-2.8C160.4,53.4,160.4,53,160.3,52.5z"/>
		<path fill="#FFFFFF" d="M168.9,49.5c-1.3-0.4-3-0.3-3-0.3c0,0-1.7,0.1-1.7,0.1c-0.5,0-0.8,0-1,0.1l-0.1,0l-0.5,0l-0.7,0l-0.3,0
			l-0.3,0l-0.8,0c-0.4-0.1-0.7-0.1-0.8,0c-0.2,0.1-0.3,0.3-0.3,0.4c0,0.2,0,0.4,0.3,0.5c0.2,0.1,0.5,0.1,1.3,0.1l0.4,0.1l0,0.1
			c0.2,0.7,0.3,3.1,0.3,5.4l0.1,7.7c0,0.9,0,1.1,0,1.1l0,0.5c0,0.5-0.1,1.1-0.1,1.5l0,0.1l0,0c-0.3,0.1-0.5,0.2-0.6,0.2l-0.2,0
			c-0.5,0-0.7,0-0.8,0.1c-0.1,0.1-0.2,0.2-0.2,0.4c0,0.2,0.1,0.4,0.3,0.5c0.1,0.1,0.2,0.1,0.4,0.1c0.2,0,0.4,0,0.7-0.1l0,0l1.7,0
			l3,0c0.2,0,0.3-0.1,0.4-0.3c0-0.1,0-0.1,0-0.2c0-0.1,0-0.2-0.1-0.3c-0.2-0.3-0.4-0.3-0.6-0.3c0,0-0.7,0-0.7,0l-0.3,0l-0.2-0.1
			l-0.1-0.8c-0.1-0.5-0.3-5.6-0.3-7.2l0-0.5l0,0l0-0.8c0-3.6,0.1-6.1,0.1-6.3c0.1-0.4,0.2-0.6,1.1-0.7h0c1-0.1,2.2-0.1,2.9,0.5
			c0.5,0.5,1.2,1.4,1.2,3.1c0,0.1,0,0.2,0,0.2c-0.1,1.8-0.6,2.5-1.5,3.1c-0.4,0.2-1.1,0.5-2.3,0.6c-0.1,0-0.3,0-0.4,0
			c-0.4,0-0.6,0-0.7,0.1l-0.3,0.2l0.1,0.2c0.1,0.2,0.5,0.3,0.6,0.3c0.5,0,2,0,2.2-0.1c2.1-0.3,3.4-1.4,4-2.3
			c0.6-1.1,0.9-1.9,0.9-2.8c0-0.4,0-0.8-0.1-1.2C171.6,51.4,170.4,49.8,168.9,49.5z"/>
		<path fill="#FFFFFF" d="M248.2,63.1L248.2,63.1c-0.2,0-0.4,0.1-0.5,0.4c0,0.2-0.1,0.3-0.1,0.4l0,0l-0.2,0.9l0,0l-0.2,0.3
			c-0.6,0.7-1.4,1.1-2.5,1.2c-2.3,0.3-3.4,0.1-3.6-0.1l0,0c-0.1-0.1-0.2-0.6-0.3-2.6c0-0.1,0-0.2,0-0.3l0,0c0-0.1-0.1-2.7-0.1-3.9
			l0-0.3l0-0.3c0-0.1,0-0.1,0-0.1l0-0.1l0-0.1l0.3-0.1c0.7,0,2.9-0.1,3.2,0l0.1,0c0.2,0.1,0.4,0.1,0.5,0.2l0.1,0.3l0,0
			c0,0,0,0.5,0,0.6c0,0.3,0,0.5,0.2,0.7c0.1,0.1,0.3,0.1,0.4,0.1c0.4-0.1,0.4-0.5,0.4-0.8c0-0.1-0.2-2.7,0-3.7
			c0-0.2,0.1-0.6-0.2-0.7c-0.2-0.1-0.4-0.1-0.5,0l-0.1,0.1c-0.1,0.1-0.1,0.2-0.2,0.7l-0.1,0.9l0,0c0,0.1-0.1,0.1-0.3,0.1
			c-0.6,0.1-3,0.2-3.8,0.2l-0.1,0l0-0.1c0-0.4,0-1.2,0-2.3c0-1.1,0-2.3,0-3l0,0l0-0.6c0-0.1,0-0.1,0-0.2c0-0.3,0.2-0.5,0.8-0.6
			c1-0.2,2.2-0.1,2.8-0.1c0.1,0,0.6,0.1,1.1,0.3l0,0c0,0,0.1,0.1,0.1,0.1l0.2,0.3l0.1,0.7c0,0,0,0.1,0,0.2l0,0.2c0,0,0,0.1,0,0.3
			l0,0.3l0,0.1l0,0.1c0.1,0.2,0.4,0.3,0.6,0.2c0.2,0,0.3-0.2,0.4-0.4c0,0,0-0.3,0.1-0.6l0-0.3l0-0.5c0-0.1,0-0.2,0-0.4l0-0.4
			c0-0.2,0.1-0.5,0.1-0.7c0-0.1,0-0.3-0.1-0.4c-0.3-0.2-0.9-0.3-1.3-0.3c-0.6,0-2.6,0-3.4,0c-0.8,0.1-4,0.1-4.3,0.1
			c-0.4-0.1-0.6-0.1-0.7,0.1l-0.1,0.1v0c0,0.1-0.1,0.2-0.1,0.3l0,0.1l0.2,0.2l0,0c0.2,0.1,0.4,0.3,0.5,0.7c0.3,1.1,0.5,6.5,0.5,7.7
			c0,0,0,1.3,0,1.4c0,1,0,2,0,2.7c0,0.6,0,2.4-0.1,2.8c-0.1,0.8-0.5,1.4-0.7,1.6l0,0l-0.1,0.1c0,0,0,0.1,0,0.2c0,0.1,0,0.2,0.1,0.3
			c0.1,0.1,0.2,0.2,0.4,0.2c0.1,0,0.3,0,0.4-0.1c0.6-0.1,1.5-0.1,2-0.1l1.4,0c1.4,0,3.3,0.1,3.7,0.1l0.2,0c1-0.1,1.5-0.1,1.7-0.3
			l0.3-0.5l0.1-0.1c0,0,0-0.1,0.1-0.1l0-0.1c0,0,0.2-0.4,0.2-0.5c0-0.1,0.3-1.4,0.3-1.4c0.2-0.9,0.2-1.1,0.2-1.3
			C248.7,63.4,248.5,63.1,248.2,63.1z"/>
		<path fill="#FFFFFF" d="M148.5,64c0-0.1,0-0.2-0.1-0.3c-0.2-0.2-0.4-0.2-0.5-0.1c-0.2,0-0.3,0.1-0.3,0.3l-0.1,0.3l-0.3,0.9
			l-0.4,0.5l-0.1,0.1c-0.4,0.3-1,0.7-2.8,0.7l-0.2,0c-1.7,0-2.3,0-2.5-0.2c-0.2-0.2-0.3-1.2-0.3-1.9c0-0.4-0.1-4.7-0.1-5.9l0-0.2
			c0.7,0,2.8,0,2.8,0c0.9,0,1.4,0.1,1.5,0.2l0,0l0,0c0.1,0.4,0.2,1.1,0.2,1.3l0.1,0.4l0.3,0.1l0.3,0c0.3-0.1,0.3-0.3,0.3-0.4h0
			c0,0,0,0,0,0c0-0.2,0-0.4,0-0.5l0-0.2c0,0,0-0.1,0-0.1l0-0.6c0-1.1,0-2.7,0.1-3l0,0l0,0c0,0,0,0,0-0.1l0-0.1l-0.1-0.3l-0.1,0
			c-0.1-0.1-0.3-0.1-0.5-0.1c-0.2,0.1-0.4,0.2-0.4,0.4c-0.1,0.8-0.2,1.2-0.3,1.3l0,0l0,0c-0.1,0.1-0.5,0.2-1.9,0.2l-1.1,0
			c-0.8,0-1.2,0-1.3-0.1l0-0.1c-0.1-0.5-0.1-4.5-0.1-4.7c0-0.4,0.2-1.5,0.9-1.5c1.1,0,2.4,0,2.9,0.1c0.4,0.1,0.8,0.2,1.1,0.4l0,0
			c0,0.1,0,0.3,0,0.3l0,0.9l0,0.2c0,0.3,0,0.5,0.2,0.6c0.1,0.1,0.3,0.2,0.5,0.1l0.2-0.1l0.1-0.1l0.1-0.5c0-0.1,0-0.2,0-0.2s0,0,0,0
			l0.1-1.3c0.1-0.3,0.2-0.6,0.2-0.9c0-0.2,0-0.3-0.1-0.3c-0.2-0.3-0.5-0.6-1.6-0.5c-1.7,0.1-3.6,0.1-3.6,0.1c-2.7,0-3.9-0.1-4.2,0.1
			l-0.1,0.1l0,0.1c-0.1,0.1-0.1,0.2-0.1,0.3c0,0,0,0.1,0,0.1l0,0.1l0.3,0.1c0.1,0,0.2,0,0.3,0.2c0.2,0.4,0.3,2.2,0.4,3.5l0,0.2
			c0.1,4.5,0.2,7.3,0.2,8.3c0,0.2,0,0.3,0,0.4l0.1,0h-0.1l0,0.1l0,0c0,0.1,0,0.2,0,0.3l0,0.1c0,0,0,0.1,0,0.2l0,0.2
			c0,1.1-0.1,2.2-0.3,2.6c-0.2,0.6-0.5,0.7-0.7,0.8l-0.2,0.1c-0.1,0.1-0.1,0.1-0.1,0.3c0,0.2,0.1,0.3,0.1,0.4l0.1,0.1l1.3,0
			c1.4-0.2,4.5,0,6.1,0.1c0.3,0,0.6,0,0.8,0c0.9,0,1.5-0.1,1.7-0.3c0.3-0.2,0.5-0.7,0.5-1l0.2-0.6c0,0,0.2-0.9,0.2-0.9
			C148.5,64.5,148.5,64.2,148.5,64z M146.5,53L146.5,53L146.5,53L146.5,53z"/>
		<path fill="#FFFFFF" d="M183.2,63.9L183.2,63.9c-0.1-0.3-0.3-0.5-0.5-0.5c-0.1,0-0.2,0-0.3,0.1l-0.1,0.2l-0.1,0.4
			c0,0.1,0,0.2-0.1,0.3l0,0.1l-0.2,0.9l0,0c-0.2,0.3-0.5,0.7-1.7,0.8c-1.5,0.1-3.7,0.1-4,0.1c-0.2-0.1-0.4-0.2-0.5-1.2
			c-0.1-1.1-0.3-5.4-0.3-6.5l0-0.2l3.1,0l0.1,0c0.2,0,0.5,0,0.8,0.1l0.1,0l0.1,0.3l0.1,0.6c0,0.4,0,0.6,0.2,0.8
			c0.1,0.1,0.3,0.2,0.5,0.2c0.2,0,0.3-0.2,0.3-0.4c0-0.1,0-0.4-0.1-1.7l0-0.2c0-0.4,0-2.3,0.1-2.5c0.1-0.3,0.1-0.6-0.1-0.7
			c-0.1-0.1-0.2-0.2-0.4-0.2c-0.5,0-0.5,0.4-0.5,0.8l0,0.3c0,0.5-0.1,0.8-0.3,0.9c-0.9,0.3-2.3,0.3-2.8,0.3l-0.3,0l-0.9,0l0-0.2
			c0-0.1,0-0.1,0-0.2c0-0.1,0-0.2,0-0.3c0-0.5,0-1,0-1.4c0-2.4,0.1-3.8,0.2-4.1c0.2-0.3,0.5-0.4,1.3-0.4c0.8-0.1,1.8,0,2.2,0
			c0.4,0.1,1,0.3,1.3,0.5l0.1,0.1c0,0,0.1,0.1,0.1,0.1c0.1,0.1,0.3,0.4,0.3,0.9c0,0.1,0,0.1,0,0.2c0,0,0,0.1,0,0.1
			c0,0.6,0.3,0.7,0.4,0.7c0.3,0,0.5-0.2,0.5-0.6l0-1.6l0-0.3v0c0-0.8,0-1-0.1-1.1c-0.1-0.1-0.6-0.5-1.6-0.5c0,0-2.4,0.1-2.5,0.1
			c-1.2,0.1-3,0.1-3.3,0.1l-0.8-0.1c0,0-1.4-0.1-1.5-0.1c-0.2,0-0.4,0.2-0.4,0.4l0,0.1c0,0.2,0.1,0.3,0.3,0.4
			c0.4,0.2,0.7,0.3,0.8,0.5c0.2,0.4,0.3,0.9,0.4,1.6c0.1,4.3,0.2,5.5,0.2,5.9l0,0c0,0.4,0.1,4,0.1,5.7c0,0.4,0,0.7,0,0.9l0,0.2
			c-0.1,1.2-0.1,1.8-0.3,2l0,0c-0.4,0.2-0.5,0.5-0.5,0.7c0,0.2,0.1,0.3,0.3,0.4c0.1,0,0.1,0,0.2,0c0.1,0,0.3,0,0.5-0.1l0.3-0.1
			c0.3,0,2-0.1,2.8,0c0,0,1,0,1.2,0l0,0c0,0,2.3,0.1,2.3,0.1c1.9,0.1,2.1-0.2,2.2-0.2c0.2-0.2,0.4-0.5,0.4-0.8
			C182.7,66.6,183.2,64.1,183.2,63.9L183.2,63.9z"/>
		<path fill="#FFFFFF" d="M212.5,50.2l0.3,0c0.6,0,0.8,0,0.9,0.1c0.1,0.1,0.3,0.2,0.3,1.7l0,0.6c0.1,5.6,0.2,9.5,0.2,11.4
			c0,0.7,0,1,0,1.2l0,0.3c0,0.5,0,0.9-0.1,1.2l-0.4,0.2l-0.5,0c-0.5,0-0.7,0-0.8,0.2l-0.2,0.4l0,0.1l0,0.1c0.1,0.2,0.2,0.3,0.4,0.3
			l0,0l0,0c0.2,0,0.8,0,0.8,0l0.8,0l4,0c0.3,0,0.5-0.1,0.6-0.5c0-0.3-0.2-0.4-0.4-0.5l-0.5,0c-0.3,0-0.4,0-0.6-0.1l-0.4-0.2l0,0
			c-0.1-0.2-0.1-0.5-0.2-1.1c-0.1-1.3-0.3-9.4-0.3-12.9c0-1.4,0-1.6,0-1.6c0-0.2,0.1-0.5,0.2-0.6l0.2-0.1c0.1,0,0.3,0,0.5,0l0.5,0
			l0.1,0c0.1-0.1,0.4-0.2,0.4-0.5c0-0.2-0.1-0.3-0.3-0.4l-0.1,0c-0.2,0-0.9-0.1-2.5,0l-0.2,0c0,0-0.4,0-0.4,0c-2-0.1-2.4,0-2.6,0.1
			l-0.1,0.3l0,0.2C212,50,212.1,50.1,212.5,50.2z M218.2,67.2L218.2,67.2L218.2,67.2L218.2,67.2z"/>
		<path fill="#FFFFFF" d="M195.6,50.3L195.6,50.3c0,0,0.4,0,0.4,0h0l0.8,0.1l0.4,0.1c0,0.1,0.1,0.2,0.1,0.2v0
			c0.3,0.9,0.4,8.3,0.4,11.7l0,1.4l0,0.5c0,0.9,0,1.8-0.2,2.2c-0.2,0.3-0.4,0.9-0.4,0.9l0,0.1l0,0.1l0.1,0.1
			c0.1,0.1,0.4,0.2,0.8,0.2c0.2,0,0.4,0,0.6,0l1.4,0c0,0,0.8,0,0.9,0l0.7,0c1.1,0,1.9-0.1,2.1-0.1c1.5-0.3,5.4-1.2,7.4-4.4
			c2.5-4,1.4-7.8,1.1-8.5c-0.4-1.1-1.5-4.3-6.4-5.3c-1.5-0.4-3.4-0.2-4.5-0.1l-1.6,0.1l-0.1,0c-0.8,0-1.2-0.1-1.4-0.1l0,0
			c0,0-0.9,0-1,0c0,0-0.6,0-0.7,0l-0.3,0c-0.5,0-0.7,0-0.8,0.1l-0.1,0l0,0.1c0,0.1-0.1,0.1-0.1,0.3l0,0.1l0,0.1
			C195.3,50.2,195.4,50.3,195.6,50.3z M199.9,52.4l0-0.4c0-0.8,0.1-1,0.1-1l0.1-0.1c0.2-0.2,1.1-0.5,4-0.3c4.3,0.2,5.8,4,5.8,7.4
			c-0.1,6.3-3.4,7.6-4.9,8l-0.5,0.1c-0.3,0.1-1.1,0.2-3,0.2l-0.1,0c-0.2,0-0.9-0.2-1.2-0.2l-0.1,0l0-0.1c0-0.2-0.1-0.5-0.1-1.1
			l0-0.5C200,63.4,199.9,54.7,199.9,52.4z"/>
	</g>
</g>
<rect x="3" y="49" fill="#EE7624" width="114" height="6"/>
<g id="COMMUNITY">
	<path fill="#FFFFFF" d="M23.3,14.3h-8.6v-1c0-4.5-0.3-6.7-2.9-6.7c-2.6,0-2.9,2.2-2.9,6.7v17.9c0,4.5,0.4,6.7,3,6.7
		c2.4,0,2.9-1.9,2.9-5.9v-2.5h8.9v2.4c0,9.2-3,12.7-11.6,12.7c-9.5,0-12.1-4.2-12.1-15.4V15.3C-0.1,4.1,2.4,0,12,0
		c8.4,0,11.3,3.4,11.3,12.6V14.3z"/>
	<path fill="#FFFFFF" d="M51.5,29.2c0,11.2-2.6,15.4-12.1,15.4c-9.5,0-12.1-4.2-12.1-15.4V15.3C27.4,4.1,29.9,0,39.4,0
		s12.1,4.1,12.1,15.3V29.2z M39.4,6.7c-2.8,0-3.2,2.1-3.2,6.7v17.9c0,4.6,0.3,6.7,3.2,6.7c2.8,0,3.2-2.1,3.2-6.7V13.3
		C42.6,8.8,42.3,6.7,39.4,6.7z"/>
	<path fill="#FFFFFF" d="M68.7,0.7l3.9,31H73l4.4-31h12v43.2H82V8.4h-0.5l-5,35.5h-8L64,8.4h-0.6v35.5h-7V0.7H68.7z"/>
	<path fill="#FFFFFF" d="M106.7,0.7l3.9,31h0.4l4.4-31h12v43.2H120V8.4h-0.5l-5,35.5h-8L102,8.4h-0.6v35.5h-7V0.7H106.7z"/>
	<path fill="#FFFFFF" d="M141.4,0.7v30.5c0,4.6,0.3,6.7,3,6.7c2.6,0,2.9-2.1,2.9-6.7V0.7h8.9v28.6c0,11.2-2.6,15.4-11.9,15.4
		c-9.4,0-11.8-4.3-11.8-15.4V0.7H141.4z"/>
	<path fill="#FFFFFF" d="M173,0.7l6.4,36.5h0.6l-0.7-36.5h7.3v43.1h-11.8l-6.3-36.5H168l0.6,36.5h-7.2V0.7H173z"/>
	<path fill="#FFFFFF" d="M201.9,0.7v43.2h-8.9V0.7H201.9z"/>
	<path fill="#FFFFFF" d="M228.4,0.7v6.7h-6.7v36.5h-9.2V7.3h-6.7V0.7H228.4z"/>
	<path fill="#FFFFFF" d="M239.3,0.7l3.8,18.2h0.4l3.6-18.2h7.9l-8,25.8v17.4h-8.9V26.5l-7.8-25.8H239.3z"/>
</g>
</svg>
